<svg width="1200" height="630" viewBox="0 0 1200 630" fill="none" xmlns="http://www.w3.org/2000/svg">
  <rect width="1200" height="630" fill="#040712"/>
  <rect x="28" y="28" width="1144" height="574" rx="36" fill="url(#paint0_linear)" stroke="#1E293B"/>
  <circle cx="1032" cy="140" r="180" fill="url(#paint1_radial)"/>
  <circle cx="172" cy="524" r="220" fill="url(#paint2_radial)"/>
  <g opacity="0.5">
    <path d="M28 92H1172" stroke="#1E293B"/>
    <path d="M28 156H1172" stroke="#1E293B"/>
    <path d="M28 220H1172" stroke="#1E293B"/>
    <path d="M28 284H1172" stroke="#1E293B"/>
    <path d="M28 348H1172" stroke="#1E293B"/>
    <path d="M28 412H1172" stroke="#1E293B"/>
    <path d="M28 476H1172" stroke="#1E293B"/>
    <path d="M28 540H1172" stroke="#1E293B"/>
    <path d="M116 28V602" stroke="#1E293B"/>
    <path d="M228 28V602" stroke="#1E293B"/>
    <path d="M340 28V602" stroke="#1E293B"/>
    <path d="M452 28V602" stroke="#1E293B"/>
    <path d="M564 28V602" stroke="#1E293B"/>
    <path d="M676 28V602" stroke="#1E293B"/>
    <path d="M788 28V602" stroke="#1E293B"/>
    <path d="M900 28V602" stroke="#1E293B"/>
    <path d="M1012 28V602" stroke="#1E293B"/>
    <path d="M1124 28V602" stroke="#1E293B"/>
  </g>
  <rect x="72" y="72" width="184" height="40" rx="20" fill="rgba(34,211,238,0.14)" stroke="rgba(34,211,238,0.22)"/>
  <text x="104" y="98" fill="#A5F3FC" font-family="Plus Jakarta Sans, Arial, sans-serif" font-size="18" font-weight="700" letter-spacing="4">SOFTWARE DEVELOPER</text>
  <text x="72" y="230" fill="#F8FAFC" font-family="Space Grotesk, Arial, sans-serif" font-size="108" font-weight="700">Jesse</text>
  <text x="72" y="312" fill="#E2E8F0" font-family="Space Grotesk, Arial, sans-serif" font-size="46" font-weight="700">Full-stack products, backend APIs,</text>
  <text x="72" y="370" fill="#E2E8F0" font-family="Space Grotesk, Arial, sans-serif" font-size="46" font-weight="700">and polished frontend systems.</text>
  <text x="72" y="456" fill="#94A3B8" font-family="Plus Jakarta Sans, Arial, sans-serif" font-size="28" font-weight="500">Portfolio featuring practical product work, clean architecture, and modern UI execution.</text>
  <rect x="72" y="500" width="218" height="56" rx="28" fill="#22D3EE"/>
  <text x="112" y="536" fill="#020617" font-family="Plus Jakarta Sans, Arial, sans-serif" font-size="24" font-weight="800">View Projects</text>
  <defs>
    <linearGradient id="paint0_linear" x1="600" y1="28" x2="600" y2="602" gradientUnits="userSpaceOnUse">
      <stop stop-color="#0C1526"/>
      <stop offset="1" stop-color="#07101F"/>
    </linearGradient>
    <radialGradient id="paint1_radial" cx="0" cy="0" r="1" gradientUnits="userSpaceOnUse" gradientTransform="translate(1032 140) rotate(90) scale(180)">
      <stop stop-color="#22D3EE" stop-opacity="0.2"/>
      <stop offset="1" stop-color="#22D3EE" stop-opacity="0"/>
    </radialGradient>
    <radialGradient id="paint2_radial" cx="0" cy="0" r="1" gradientUnits="userSpaceOnUse" gradientTransform="translate(172 524) rotate(90) scale(220)">
      <stop stop-color="#38BDF8" stop-opacity="0.14"/>
      <stop offset="1" stop-color="#38BDF8" stop-opacity="0"/>
    </radialGradient>
  </defs>
</svg>
