<svg width="640" height="760" viewBox="0 0 640 760" fill="none" xmlns="http://www.w3.org/2000/svg">
  <rect width="640" height="760" rx="40" fill="#07101F"/>
  <rect x="28" y="28" width="584" height="704" rx="28" fill="url(#panel)"/>
  <circle cx="320" cy="246" r="120" fill="url(#glow)"/>
  <path d="M320 388C244.889 388 184 327.111 184 252C184 176.889 244.889 116 320 116C395.111 116 456 176.889 456 252C456 327.111 395.111 388 320 388Z" fill="#0F172A" stroke="#38BDF8" stroke-opacity="0.45" stroke-width="2"/>
  <path d="M472 640C472 542.798 403.202 464 306 464H334C431.202 464 500 542.798 500 640V656H472V640Z" fill="#0F172A"/>
  <path d="M140 656V632C140 538.112 216.112 462 310 462H330C423.888 462 500 538.112 500 632V656H140Z" fill="#0F172A" stroke="#38BDF8" stroke-opacity="0.35" stroke-width="2"/>
  <path d="M245 248C245 214.863 271.863 188 305 188H335C368.137 188 395 214.863 395 248V266C395 299.137 368.137 326 335 326H305C271.863 326 245 299.137 245 266V248Z" fill="#111C31"/>
  <path d="M224 688H416" stroke="#22D3EE" stroke-opacity="0.45" stroke-width="4" stroke-linecap="round"/>
  <rect x="76" y="76" width="488" height="44" rx="22" fill="#0B1325" stroke="#38BDF8" stroke-opacity="0.25"/>
  <circle cx="110" cy="98" r="8" fill="#22D3EE"/>
  <circle cx="138" cy="98" r="8" fill="#1D4ED8"/>
  <circle cx="166" cy="98" r="8" fill="#94A3B8"/>
  <path d="M216 98H444" stroke="#334155" stroke-width="8" stroke-linecap="round"/>
  <defs>
    <linearGradient id="panel" x1="320" y1="28" x2="320" y2="732" gradientUnits="userSpaceOnUse">
      <stop stop-color="#0B1325"/>
      <stop offset="1" stop-color="#050816"/>
    </linearGradient>
    <radialGradient id="glow" cx="0" cy="0" r="1" gradientUnits="userSpaceOnUse" gradientTransform="translate(320 246) rotate(90) scale(160)">
      <stop stop-color="#38BDF8" stop-opacity="0.28"/>
      <stop offset="1" stop-color="#38BDF8" stop-opacity="0"/>
    </radialGradient>
  </defs>
</svg>

